<?xml version="1.0" encoding="UTF-8"?>
<svg version="1.1" xmlns="http://www.w3.org/2000/svg" width="442" height="426">
<path d="M0 0 C145.86 0 291.72 0 442 0 C442 140.58 442 281.16 442 426 C296.14 426 150.28 426 0 426 C0 285.42 0 144.84 0 0 Z " fill="#323232" transform="translate(0,0)"/>
<path d="M0 0 C2.59064472 1.21601691 4.27636871 1.38250011 7.10546875 0.98828125 C9.45869671 -1.91584421 9.45869671 -1.91584421 11.10546875 -5.01171875 C12.75546875 -4.68171875 14.40546875 -4.35171875 16.10546875 -4.01171875 C18.01395631 13.64642342 18.67862394 31.2447243 19.10546875 48.98828125 C16.14882356 50.46660385 13.36317138 50.04860908 10.10546875 49.98828125 C9.62078125 48.828125 9.13609375 47.66796875 8.63671875 46.47265625 C1.93516539 30.72645537 -6.449263 13.51643614 -22.89453125 5.98828125 C-27.18108438 4.46840965 -31.50439857 3.17292023 -35.89453125 1.98828125 C-36.549375 1.79363281 -37.20421875 1.59898437 -37.87890625 1.3984375 C-48.35688186 -0.7337087 -59.25502163 0.92671118 -68.359375 6.49609375 C-82.79253763 17.10508509 -93.34401859 34.31088547 -96.23388672 52.07421875 C-99.21573512 76.18413734 -97.4744111 105.16791052 -82.33203125 125.30078125 C-81.21375152 126.55506797 -80.06921452 127.78665571 -78.89453125 128.98828125 C-78.353125 129.60445312 -77.81171875 130.220625 -77.25390625 130.85546875 C-70.75706062 137.92913713 -62.20016819 143.37764111 -52.46728516 144.19116211 C-49.7102669 144.29313262 -46.96587272 144.31634129 -44.20703125 144.30078125 C-42.74644287 144.29667236 -42.74644287 144.29667236 -41.25634766 144.29248047 C-34.11278878 144.18884705 -27.62830327 143.54570686 -20.89453125 140.98828125 C-20.17523438 140.74851562 -19.4559375 140.50875 -18.71484375 140.26171875 C-15.94543846 138.32432363 -15.74466844 136.22290463 -14.89453125 132.98828125 C-14.72090376 130.25037636 -14.63685746 127.62052971 -14.6640625 124.88671875 C-14.66452072 124.12783356 -14.66497894 123.36894836 -14.66545105 122.58706665 C-14.6684573 120.99194768 -14.67629449 119.39683122 -14.6887207 117.80175781 C-14.70702716 115.36382632 -14.70922974 112.92627448 -14.70898438 110.48828125 C-14.71389864 108.93359048 -14.71972657 107.37890226 -14.7265625 105.82421875 C-14.72767532 105.09810394 -14.72878815 104.37198914 -14.72993469 103.62387085 C-14.76225829 100.17328238 -15.0500657 97.36614347 -15.89453125 93.98828125 C-21.50453125 93.65828125 -27.11453125 93.32828125 -32.89453125 92.98828125 C-32.89453125 90.01828125 -32.89453125 87.04828125 -32.89453125 83.98828125 C-10.45453125 83.98828125 11.98546875 83.98828125 35.10546875 83.98828125 C35.10546875 86.95828125 35.10546875 89.92828125 35.10546875 92.98828125 C34.26242188 93.02566406 33.419375 93.06304687 32.55078125 93.1015625 C31.45507812 93.16730469 30.359375 93.23304688 29.23046875 93.30078125 C28.13992187 93.35878906 27.049375 93.41679687 25.92578125 93.4765625 C24.99507812 93.64542969 24.064375 93.81429687 23.10546875 93.98828125 C21.03008251 97.10136061 20.85774724 97.7517632 20.87841797 101.27612305 C20.87856903 102.13678879 20.87872009 102.99745453 20.87887573 103.88420105 C20.8891983 104.8092897 20.89952087 105.73437836 20.91015625 106.6875 C20.91298615 107.63768509 20.91581604 108.58787018 20.91873169 109.56684875 C20.9299316 112.6032874 20.95503587 115.63943167 20.98046875 118.67578125 C20.99049879 120.7337197 20.9996246 122.79166277 21.0078125 124.84960938 C21.02987033 129.89594685 21.06439893 134.94206413 21.10546875 139.98828125 C12.46833424 144.1765816 3.96349278 148.08006537 -5.26953125 150.80078125 C-6.25719482 151.09283447 -7.2448584 151.3848877 -8.26245117 151.68579102 C-36.4889512 159.72140616 -69.59293659 159.13010835 -95.953125 145.39453125 C-115.85699809 133.42397495 -126.86947856 115.15473765 -132.453125 93.078125 C-134.06833224 85.99040276 -134.34151525 79.23467085 -134.26953125 71.98828125 C-134.28113281 70.82039063 -134.29273438 69.6525 -134.3046875 68.44921875 C-134.26757718 57.29138299 -132.48622553 46.7746777 -127.20703125 36.86328125 C-126.68701538 35.85890015 -126.68701538 35.85890015 -126.15649414 34.83422852 C-115.79416228 15.32742513 -98.91002316 1.01007362 -77.78369141 -5.68017578 C-53.93011541 -12.51946443 -21.79232005 -13.86040619 0 0 Z " fill="#C7DBF8" transform="translate(182.89453125,145.01171875)"/>
<path d="M0 0 C0.99 0 1.98 0 3 0 C3.29894165 0.97123306 3.5978833 1.94246613 3.90588379 2.94313049 C6.68530903 11.93034329 9.59442531 20.86347194 12.6353302 29.76539421 C13.37014639 31.91713971 14.10208981 34.0698453 14.83337402 36.22279358 C16.90864267 42.33108328 18.98842568 48.43783072 21.07080078 54.54370117 C22.35688954 58.31536659 23.63947749 62.08820894 24.92012024 65.86172676 C25.40030331 67.27437529 25.88176027 68.68659164 26.3646698 70.09831047 C29.43557082 79.07625028 32.26512692 88.09623998 34.8927002 97.21412659 C37.22092692 105.17436609 39.91563418 112.90761679 43.0703125 120.57421875 C44.00199974 123.00521781 44.73503815 125.43152656 45.4375 127.9375 C47.06362112 133.56706061 49.4735539 138.72604377 52 144 C52.33 144.75796875 52.66 145.5159375 53 146.296875 C55.03635596 150.81079739 57.28197393 154.94089944 62 157 C66.33388584 157.69218201 70.6151524 157.92843721 75 158 C75 160.97 75 163.94 75 167 C50.91 167 26.82 167 2 167 C2 164.03 2 161.06 2 158 C2.85464844 157.93941406 3.70929688 157.87882813 4.58984375 157.81640625 C5.69457031 157.73261719 6.79929687 157.64882813 7.9375 157.5625 C9.59072266 157.44068359 9.59072266 157.44068359 11.27734375 157.31640625 C13.91109903 157.29581916 13.91109903 157.29581916 15 156 C15.50705483 148.56067322 14.01997043 142.50797622 11.8125 135.4375 C11.33864868 133.86718018 11.33864868 133.86718018 10.85522461 132.26513672 C9.91791487 129.17208573 8.96305112 126.08512308 8 123 C7.72865234 122.13036621 7.45730469 121.26073242 7.17773438 120.36474609 C6.07984777 116.85618988 4.97429909 113.35103834 3.84765625 109.8515625 C3 107 3 107 3 105 C-13.5 105 -30 105 -47 105 C-47.66 107.97 -48.32 110.94 -49 114 C-49.74729624 116.24443054 -50.53708654 118.47530173 -51.375 120.6875 C-58.21300873 137.39816655 -58.21300873 137.39816655 -56.91796875 154.73046875 C-55.12096606 157.33301206 -55.12096606 157.33301206 -51.6796875 157.671875 C-50.42414063 157.69765625 -49.16859375 157.7234375 -47.875 157.75 C-41.05473684 157.94526316 -41.05473684 157.94526316 -40 159 C-40 161.64 -40 164.28 -40 167 C-59.47 167 -78.94 167 -99 167 C-99 164.03 -99 161.06 -99 158 C-97.80503906 157.96132813 -97.80503906 157.96132813 -96.5859375 157.921875 C-87.83816075 157.45362418 -82.95124023 155.5648741 -77 149 C-75.4926057 146.28533135 -75.4926057 146.28533135 -74.22265625 143.20703125 C-73.71524902 142.03479004 -73.2078418 140.86254883 -72.68505859 139.65478516 C-72.14365086 138.3742579 -71.60281276 137.09348966 -71.0625 135.8125 C-70.49586124 134.48735805 -69.92896193 133.16232749 -69.36181641 131.83740234 C-60.6687011 111.41907149 -52.67187995 90.70136 -45.00390625 69.87890625 C-44.14938389 67.56488343 -43.29433496 65.25105568 -42.43920898 62.93725586 C-41.85553264 61.35624228 -41.2728474 59.77486244 -40.69116211 58.19311523 C-34.99679116 42.71400526 -34.99679116 42.71400526 -31.77124023 35.7121582 C-28.53144648 28.51979556 -26.9641899 21.71637697 -29 14 C-28.15405273 13.6757605 -28.15405273 13.6757605 -27.29101562 13.3449707 C-24.69063293 12.34267332 -22.09537672 11.32768598 -19.5 10.3125 C-18.1696875 9.80299805 -18.1696875 9.80299805 -16.8125 9.28320312 C-7.75200977 5.75168297 -7.75200977 5.75168297 0 0 Z " fill="#C7DBF9" transform="translate(316,131)"/>
<path d="M0 0 C0.99 0 1.98 0 3 0 C7.05984004 13.67701738 10.97587886 27.38009658 14.60180664 41.17919922 C16.01875053 46.53228583 17.52342673 51.77583169 19.45800781 56.96704102 C20 59 20 59 20 64 C5.81 64 -8.38 64 -23 64 C-20.7497869 53.87404105 -20.7497869 53.87404105 -18.94140625 48.93359375 C-18.55533203 47.87076172 -18.16925781 46.80792969 -17.77148438 45.71289062 C-17.37251953 44.63201172 -16.97355469 43.55113281 -16.5625 42.4375 C-16.16740234 41.35275391 -15.77230469 40.26800781 -15.36523438 39.15039062 C-13.70918902 34.61210994 -12.03501293 30.08093688 -10.3359375 25.55859375 C-9.22089816 22.58841587 -8.13300725 19.61139362 -7.0625 16.625 C-1.61019737 1.61019737 -1.61019737 1.61019737 0 0 Z " fill="#383939" transform="translate(296,163)"/>
</svg>
